<svg xmlns="http://www.w3.org/2000/svg" viewBox="0 0 406.42 126.18"><defs><style>.cls-1{fill:#fff;}</style></defs><title>Berlin-Shorts-logo</title><g id="Layer_2" data-name="Layer 2"><g id="Layer_1-2" data-name="Layer 1"><path class="cls-1" d="M17.5,126.18V39.38C14.7,43.05,7,46.2,0,47.25V21.88C10.15,18.9,19.43,13.3,21,0H46.38V126.18Z"/><path class="cls-1" d="M54.08,15.29a9.4,9.4,0,0,1-3.87-.84l.35-3a9.39,9.39,0,0,0,3.52.84c.77,0,1.14-.14,1.14-.6s-.92-.53-2-.72c-1.41-.27-3.06-.8-3.06-3.06,0-2.49,2-3.35,4.82-3.35a9.84,9.84,0,0,1,3.63.71l-.33,3a7.47,7.47,0,0,0-3.25-.8c-.8,0-1.26.09-1.26.58s.71.46,1.59.61c1.49.27,3.52.75,3.52,3.3C58.9,14.25,57.29,15.29,54.08,15.29Z"/><path class="cls-1" d="M63.05,15.29c-1.93,0-3.27-.75-3.27-3.63V7.45H58.63V4.7h1.15V1.07L63.3.41V4.7H65V7.45H63.3v4c0,.74.28,1,.72,1a2.87,2.87,0,0,0,1.15-.33l.26,2.78A6.17,6.17,0,0,1,63.05,15.29Z"/><path class="cls-1" d="M76.35,101.53H59.28V54.19h18c8.74,0,13.86,4.14,13.86,12,0,7.36-2.69,9.39-7.42,10.9,4.33,1.45,7.75,4.4,7.75,11.56C91.52,97.6,85.67,101.53,76.35,101.53ZM74.77,63.39H70.11v9.12h4.47c4.07,0,5.45-1.44,5.45-4.66C80,64.44,78.52,63.39,74.77,63.39Zm-.19,18.32H70.11V92.34h4.47c4.53,0,5.77-2,5.77-5.32S78.71,81.71,74.58,81.71Z"/><path class="cls-1" d="M106.55,88.93c.59,3,2.37,4.07,5.19,4.07a32.44,32.44,0,0,0,11.49-2.43l1,9a33.47,33.47,0,0,1-12.61,2.3c-9.25,0-16.21-4.4-16.21-15.69S101.89,70,110.76,70c10.17,0,15.1,6,15.1,15.17v3.81Zm4.21-11.1c-2.43,0-4,.92-4.4,5.71H115C115,79.54,114,77.83,110.76,77.83Z"/><path class="cls-1" d="M148.12,81.38a9,9,0,0,0-3.68-.79c-2,0-3.48,1.51-3.48,3.94v17H130.45V70.28H141v4.2c.39-1.57,1.71-4.53,5.06-4.53a7.65,7.65,0,0,1,2.88.59Z"/><path class="cls-1" d="M152.19,101.53V54.19h10.5v47.34Z"/><path class="cls-1" d="M173.2,64.9c-3.35,0-5.65-1.78-5.65-5.52s2.3-5.51,5.65-5.51,5.65,1.7,5.65,5.51S176.48,64.9,173.2,64.9ZM168,101.53V70.28h10.5v31.25Z"/><path class="cls-1" d="M200.58,101.53v-19c0-2.95-.92-4-3-4s-3.35,1.11-3.35,4.07v19H183.7V70.28h10.51v2.63c1.12-1.32,3.22-3,7.16-3,6.1,0,9.71,3.61,9.71,11.1v20.48Z"/><path class="cls-1" d="M247.52,101.86a33.31,33.31,0,0,1-16.08-3.81l1.12-10.3c3.34,1.77,9,4.79,14.7,4.79,3.75,0,6-.59,6-4.33,0-2.83-2.62-4-6-5.06l-2.82-.85c-5.91-1.78-12.61-4.4-12.61-14.12,0-9,6.7-14.31,16.94-14.31A26.84,26.84,0,0,1,263,57.54l-1.32,9.85c-2.49-1.51-7.29-4.2-12.74-4.2-4,0-5.58,2-5.58,4.6s2.76,3.74,6.31,4.79l2.43.72c6,1.77,12.73,4.53,12.73,14.45C264.79,98.05,257.18,101.86,247.52,101.86Z"/><path class="cls-1" d="M286.27,101.53v-19c0-2.95-.92-4-3-4s-3.35,1.11-3.35,4.07v19H269.39V54.19H279.9V72.91c1.11-1.32,3.21-3,7.15-3,6.11,0,9.72,3.61,9.72,11.1v20.48Z"/><path class="cls-1" d="M317.59,101.86c-8.74,0-16.22-4.13-16.22-16s7.48-16,16.22-16,16.21,4.14,16.21,16S326.32,101.86,317.59,101.86Zm0-23.37c-3.68,0-6,1.71-6,7.42s2.36,7.42,6,7.42,6-1.71,6-7.42S321.26,78.49,317.59,78.49Z"/><path class="cls-1" d="M356.06,81.38a9,9,0,0,0-3.67-.79c-2,0-3.48,1.51-3.48,3.94v17H338.4V70.28h10.51v4.2c.39-1.57,1.7-4.53,5-4.53a7.71,7.71,0,0,1,2.89.59Z"/><path class="cls-1" d="M371.36,101.86c-5.78,0-9.78-2.23-9.78-10.83V78.49h-3.42V70.28h3.42V59.45l10.5-2v12.8h5.13v8.21h-5.13V90.37c0,2.23.86,2.89,2.17,2.89a8.85,8.85,0,0,0,3.42-1l.78,8.27A18.14,18.14,0,0,1,371.36,101.86Z"/><path class="cls-1" d="M392.05,101.86a28.57,28.57,0,0,1-11.56-2.49l1.05-8.87A27.72,27.72,0,0,0,392.05,93c2.29,0,3.41-.4,3.41-1.77,0-1.58-2.76-1.58-5.91-2.17-4.2-.79-9.13-2.36-9.13-9.13,0-7.42,5.91-10,14.38-10a30,30,0,0,1,10.84,2.1l-1,8.8a22.52,22.52,0,0,0-9.72-2.36c-2.36,0-3.74.26-3.74,1.71,0,1.24,2.1,1.37,4.73,1.83,4.46.79,10.5,2.24,10.5,9.85C406.42,98.78,401.63,101.86,392.05,101.86Z"/><path class="cls-1" d="M59,125.71V111.79h1.84v13.92Z"/><path class="cls-1" d="M74.07,125.71l-4.83-10.16v10.16H67.41V111.79h1.91l4.93,10.29V111.79h1.83v13.92Z"/><path class="cls-1" d="M87.09,113.52v12.19H85.26V113.52H81.88v-1.73h8.59v1.73Z"/><path class="cls-1" d="M96.27,125.71V111.79h7.53v1.73H98.1v4h5.12v1.74H98.1V124h5.7v1.73Z"/><path class="cls-1" d="M116.59,125.71l-3.22-6h-1.74v6h-1.84V111.79h4.35c2.84,0,4.37,1.37,4.37,4a3.72,3.72,0,0,1-3.23,3.84l3.53,6.12Zm-2.49-12.19h-2.47V118H114c1.45,0,2.62-.66,2.62-2.24S115.51,113.52,114.1,113.52Z"/><path class="cls-1" d="M131.66,125.71l-4.83-10.16v10.16H125V111.79h1.91l4.93,10.29V111.79h1.83v13.92Z"/><path class="cls-1" d="M147.58,125.71l-1-3.59H142l-1,3.59h-1.93l4.23-13.92h2l4.23,13.92Zm-3.3-11.43-1.74,6.1H146Z"/><path class="cls-1" d="M158,113.52v12.19h-1.83V113.52H152.8v-1.73h8.59v1.73Z"/><path class="cls-1" d="M167.19,125.71V111.79H169v13.92Z"/><path class="cls-1" d="M180.85,125.81c-4,0-5.84-3.09-5.84-7,0-4.13,2.21-7.07,5.86-7.07s5.81,2.94,5.81,7.07C186.68,122.64,184.92,125.81,180.85,125.81Zm0-12.38c-2.46,0-3.92,1.85-3.92,5.33,0,3.23,1.39,5.31,3.9,5.31s3.9-2,3.9-5.31C184.75,115.3,183.2,113.43,180.87,113.43Z"/><path class="cls-1" d="M199.34,125.71l-4.83-10.16v10.16h-1.84V111.79h1.91l4.93,10.29V111.79h1.84v13.92Z"/><path class="cls-1" d="M215.26,125.71l-1-3.59h-4.5l-1,3.59h-1.93L211,111.79h2l4.23,13.92ZM212,114.28l-1.74,6.1h3.5Z"/><path class="cls-1" d="M222.6,125.71V111.79h1.83V124h4.87v1.73Z"/><path class="cls-1" d="M245.43,113.52v4h4.93v1.74h-4.93v6.41H243.6V111.79h7.53v1.73Z"/><path class="cls-1" d="M257.12,125.71V111.79H259v13.92Z"/><path class="cls-1" d="M265.52,125.71V111.79h1.84V124h4.87v1.73Z"/><path class="cls-1" d="M289.88,125.71l-1.21-9.85-3.07,9.85h-1.53l-3-9.85-1.5,9.85h-1.93l2.22-13.92h1.79l3.23,10.87,3.27-10.87H290L292,125.71Z"/><path class="cls-1" d="M308.14,113.52v4h4.93v1.74h-4.93v6.41h-1.83V111.79h7.53v1.73Z"/><path class="cls-1" d="M319.83,125.71V111.79h7.53v1.73h-5.7v4h5.12v1.74h-5.12V124h5.7v1.73Z"/><path class="cls-1" d="M336.93,125.81a8,8,0,0,1-4.16-1l.33-2.07a7.58,7.58,0,0,0,3.75,1.31c1.62,0,2.55-.67,2.55-2.08s-.87-1.78-2-2.19l-1.35-.48c-1.57-.56-3.17-1.41-3.17-3.76,0-2.65,1.91-3.83,4.4-3.83a6.51,6.51,0,0,1,3.6,1l-.39,1.93a5.63,5.63,0,0,0-3.17-1.14c-1.47,0-2.41.67-2.41,1.93s.85,1.72,1.93,2.1l1.37.49c1.56.56,3.21,1.43,3.21,3.86C341.43,124.57,339.77,125.81,336.93,125.81Z"/><path class="cls-1" d="M351.86,113.52v12.19H350V113.52h-3.38v-1.73h8.6v1.73Z"/><path class="cls-1" d="M361,125.71V111.79h1.83v13.92Z"/><path class="cls-1" d="M374.13,125.71h-2.08l-4-13.92h2l3,11.24,2.94-11.24h2Z"/><path class="cls-1" d="M389.86,125.71l-1-3.59h-4.51l-1,3.59h-1.93l4.23-13.92h2l4.23,13.92Zm-3.3-11.43-1.74,6.1h3.49Z"/><path class="cls-1" d="M397.2,125.71V111.79H399V124h4.86v1.73Z"/></g></g></svg>