<?xml version="1.0" encoding="UTF-8"?>
<svg width="316px" height="32px" viewBox="0 0 316 32" version="1.1" xmlns="http://www.w3.org/2000/svg" xmlns:xlink="http://www.w3.org/1999/xlink">
    <!-- Generator: Sketch 52.5 (67469) - http://www.bohemiancoding.com/sketch -->
    <title>OCTOBER-2019White</title>
    <desc>Created with Sketch.</desc>
    <g id="Home" stroke="none" stroke-width="1" fill="none" fill-rule="evenodd">
        <g id="Desktop" transform="translate(-562.000000, -568.000000)" fill="#FFFFFF">
            <g id="OCTOBER-2019White" transform="translate(562.000000, 568.000000)">
                <path d="M15.8533202,0.0026073147 C19.9267409,-0.03070353 23.838991,1.60542834 26.6936302,4.53610497 C29.5482693,7.46678161 31.1006042,11.4407918 30.9949377,15.5475439 C30.9949377,25.6753056 24.1831561,31.9953429 15.580849,31.9953429 C11.42091,32.0987083 7.40084266,30.4776148 4.4584289,27.5102233 C1.51601514,24.5428319 -0.09143297,20.4886388 0.011062325,16.2933868 C-0.150159945,11.9797801 1.4566215,7.78948604 4.45367681,4.70757894 C7.45073212,1.62567184 11.5736952,-0.0759975525 15.8533202,0.0026073147 Z M14.919133,1.74944993 C9.68379228,1.74944993 4.91554512,6.16562509 4.91554512,14.9979754 C4.91554512,23.8303257 9.68379228,30.2092454 16.3204138,30.2092454 C21.9644615,30.2092454 26.2072284,25.9697173 26.2072284,16.8822102 C26.2072284,6.98997779 21.0302743,1.74944993 14.919133,1.74944993 Z" id="Shape" fill-rule="nonzero"></path>
                <path d="M64,23.7444717 C63.2987835,26.1708005 62.4395742,28.5477935 61.4279749,30.8599509 C58.6236211,31.5384527 55.7568517,31.9205294 52.8740431,32 C41.6896312,32 36,24.4914005 36,16.2751843 C36,6.66339066 43.2484342,0 53.7118998,0 C56.6875991,0.0813431009 59.6492338,0.443279808 62.5581072,1.08108108 C62.7334725,3.2039312 63.0647182,6.03439803 63.4544189,8.39312039 L62.0514962,8.60933661 C61.1162143,5.44471744 60.1029923,3.51842752 57.6089074,2.53562654 C56.0475365,1.90965725 54.3785874,1.60233451 52.6986778,1.63144963 C44.9046625,1.63144963 40.9102296,7.39066339 40.9102296,15.1744472 C40.9102296,24.2751843 45.5866388,30.1326781 53.1663187,30.1326781 C57.9401531,30.1326781 60.2783577,27.9115479 62.6555324,23.1941032 L64,23.7444717 Z" id="Path"></path>
                <path d="M93.5644574,8.27950311 C93.2202525,6.9435257 92.718712,5.65122069 92.0699199,4.42857143 C91.3029862,3.19627329 90.8310269,2.8689441 88.2352513,2.8689441 L83.5156591,2.8689441 L83.5156591,25.3198758 C83.5156591,28.9204969 83.8892935,29.421118 88.372906,29.7099379 L88.372906,31 L74.607429,31 L74.607429,29.7099379 C78.9927167,29.421118 79.3663511,28.9590062 79.3663511,25.3198758 L79.3663511,2.81118012 L75.0793882,2.81118012 C72.4836125,2.81118012 71.7363438,3.08074534 70.9300801,4.46708075 C70.2817231,5.69649692 69.7612612,6.98662991 69.3765477,8.31801242 L68,8.31801242 C68.2949745,5.48757764 68.570284,2.54161491 68.7079388,0 L69.809177,0 C70.5171158,1.09751553 71.028405,1.05900621 72.3459578,1.05900621 L91.0473416,1.05900621 C91.9917887,1.2105355 92.9370398,0.793289051 93.4464676,6.84062882e-15 L94.5870357,6.84062882e-15 C94.5870357,2.15652174 94.7640204,5.48757764 95,8.16397516 L93.5644574,8.27950311 Z" id="Path"></path>
                <path d="M114.85332,0.0026073147 C118.926741,-0.03070353 122.838991,1.60542834 125.69363,4.53610497 C128.548269,7.46678161 130.100604,11.4407918 129.994938,15.5475439 C129.994938,25.6753056 123.183156,31.9953429 114.580849,31.9953429 C110.42091,32.0987083 106.400843,30.4776148 103.458429,27.5102233 C100.516015,24.5428319 98.908567,20.4886388 99.0110623,16.2933868 C98.8498401,11.9797801 100.456621,7.78948604 103.453677,4.70757894 C106.450732,1.62567184 110.573695,-0.0759975525 114.85332,0.0026073147 Z M113.919133,1.74944993 C108.703255,1.74944993 103.935007,6.18525254 103.935007,14.9979754 C103.935007,23.8106983 108.703255,30.2092454 115.320414,30.2092454 C120.983924,30.2092454 125.226691,25.9697173 125.226691,16.8822102 C125.226691,6.98997779 120.049737,1.74944993 113.919133,1.74944993 Z" id="Shape" fill-rule="nonzero"></path>
                <path d="M149.915994,14.7617404 C154.374798,15.5102919 158,17.6215913 158,22.0937073 C157.984549,25.1150041 156.231627,27.863528 153.483037,29.176157 C151.019494,30.4975458 148.236001,31.1217639 145.437803,30.9803582 L134,30.9803582 L134,29.694385 C137.877221,29.329706 138.187399,28.9074461 138.187399,25.2606563 L138.187399,6.79638364 C138.187399,2.95765751 137.760905,2.65055942 134,2.3242677 L134,1.03829445 L146.174475,1.03829445 C148.675332,0.841883626 151.177296,1.40425753 153.347334,2.65055942 C155.104688,3.78475582 156.14568,5.7371963 156.100162,7.81364606 C155.956569,11.2857184 153.37697,14.1839739 149.915994,14.7617404 Z M144.546042,14.2051251 C149.68336,14.2051251 151.77706,12.1897938 151.77706,8.44703587 C151.77706,5.22250593 149.838449,2.68894668 145.3021,2.68894668 C144.4097,2.59854866 143.509598,2.7581604 142.704362,3.14959382 C142.31664,3.43749828 142.180937,3.93653267 142.180937,5.41444223 L142.180937,14.2051251 L144.546042,14.2051251 Z M142.180937,25.1838818 C142.180937,28.4851863 142.975767,29.329706 146.271405,29.329706 C148.1673,29.5170206 150.051318,28.8755737 151.429873,27.5734156 C152.808428,26.2712575 153.544141,24.4381545 153.444265,22.5543544 C153.444265,17.8519149 150.090468,15.81739 144.410339,15.81739 L142.180937,15.81739 L142.180937,25.1838818 Z" id="Shape" fill-rule="nonzero"></path>
                <path d="M187,23.6632522 C186.704724,24.8732394 185.425197,29.6171575 185.031496,31 L162,31 L162,29.7131882 C166.389764,29.3866837 166.724409,28.9641485 166.724409,25.1997439 L166.724409,6.9346991 C166.724409,2.84379001 166.192913,2.61331626 162.649606,2.28681178 L162.649606,1 L177.11811,1 C181.566929,1 183.397638,1 183.968504,1 C183.968504,2.15236876 184.204724,5.60947503 184.401575,8.04865557 L182.984252,8.27912932 C182.653374,7.06394184 182.177689,5.8907692 181.566929,4.78361076 C180.799213,3.26632522 179.716535,2.86299616 176.88189,2.86299616 L172.393701,2.86299616 C170.937008,2.86299616 170.838583,2.99743918 170.838583,4.3418694 L170.838583,14.5211268 L176.074803,14.5211268 C179.61811,14.5211268 179.854331,13.8297055 180.425197,10.6798976 L181.88189,10.6798976 L181.88189,20.1677337 L180.425197,20.1677337 C179.814961,16.8642766 179.440945,16.3265045 176.035433,16.3265045 L170.838583,16.3265045 L170.838583,25.5838668 C170.838583,28.8104994 171.862205,29.0985915 174.224409,29.1370038 L178.633858,29.1370038 C181.507874,29.1370038 181.980315,28.7144686 183.023622,27.5236876 C184.064007,26.210654 184.936576,24.7788531 185.622047,23.2599232 L187,23.6632522 Z" id="Path"></path>
                <path d="M217.766017,31.9776822 C217.187938,32.0074393 216.60872,32.0074393 216.030641,31.9776822 C213.046755,31.9992254 210.279545,30.4160572 208.777159,27.8278413 C207.061281,25.4397253 205.364903,22.4643677 203.883008,19.9979528 C202.927577,18.4906993 202.32312,18.2166532 199.983287,18.2166532 L198.345404,18.2166532 L198.345404,25.5963231 C198.345404,29.5112673 198.852368,29.8244629 202.5961,30.1963826 L202.5961,31.5078889 L190,31.5078889 L190,30.1963826 C193.899721,29.7657387 194.211699,29.5895662 194.211699,25.5963231 L194.211699,6.922039 C194.211699,3.00709475 193.704735,2.79177282 190,2.36112895 L190,1.04962262 L201.933148,1.04962262 C204.530237,0.8232105 207.135884,1.37498467 209.420613,2.63517505 C211.530107,3.97310501 212.770687,6.33717114 212.67688,8.84036169 C212.67688,12.892329 210.103064,15.417468 206.632312,16.9247216 C207.470752,18.3928257 209.479109,21.5247811 210.883008,23.638851 C212.001765,25.3431201 213.239798,26.9653864 214.587744,28.4933818 C215.480869,29.5424431 216.671107,30.293513 218,30.6466012 L217.766017,31.9776822 Z M200.490251,16.7093996 C202.312429,16.8997269 204.141501,16.4198078 205.637883,15.3587439 C207.447054,13.9777427 208.419775,11.758382 208.211699,9.48632749 C208.385187,7.60205192 207.708863,5.73882539 206.368473,4.4083643 C205.028082,3.07790321 203.164556,2.4200951 201.289694,2.61560033 C200.435623,2.50829578 199.569538,2.67260441 198.81337,3.08539364 C198.384401,3.4181639 198.247911,3.88795721 198.247911,5.04286576 L198.247911,16.5528019 L200.490251,16.7093996 Z" id="Shape" fill-rule="nonzero"></path>
                <path d="M249,25.7219399 C248.38,27.8474273 247.56,30.2484409 247,32 L229,32 L229,30.8585345 C231.64,28.3197579 234.52,25.5251355 236.88,22.8289153 C239.9,19.3454776 242.88,15.5668332 242.88,11.4536214 C242.88,7.3404096 240.76,5.25428304 237.26,5.25428304 C234.43221,5.5125255 231.934906,7.17554095 230.64,9.66270144 L229.54,8.65899903 L232.2,4.84099382 C233.8793,3.01214525 236.275306,1.98019376 238.78,2.00701056 C240.9965,1.91402755 243.149268,2.74946231 244.704595,4.30619643 C246.259922,5.86293055 247.072181,7.99520499 246.94,10.1743929 C246.94,14.1104807 245.46,17.0231857 240.94,21.6087281 C238.94,23.7342155 235.84,26.6075596 233.78,28.5559231 L242.96,28.5559231 C245.54,28.5559231 246.26,28.3197579 247.9,25.3480115 L249,25.7219399 Z" id="Path"></path>
                <path d="M261.54779,2 C268.422125,2 271,9.72698004 271,16.9710238 C271,23.7514488 268.422125,32 261.54779,32 C254.673456,32 252.000104,24.27302 252.000104,17.0096587 C251.981008,10.2485512 254.597074,2 261.54779,2 Z M261.54779,3.62266581 C257.289522,3.62266581 256.239277,10.4417257 256.239277,16.9323889 C256.239277,23.4230522 257.518667,30.454604 261.54779,30.454604 C265.576914,30.454604 266.779923,23.5389569 266.779923,17.0482936 C266.779923,10.5576304 265.6342,3.62266581 261.54779,3.62266581 Z" id="Shape" fill-rule="nonzero"></path>
                <path d="M277,32 L277,30.6811024 C282.249017,30.3464567 282.524246,30.1102362 282.524246,26.5669291 L282.524246,8.41732283 C282.524246,6.01574803 282.190039,5.91732283 280.125819,5.74015748 L277.806029,5.48425197 L277.806029,4.30314961 C280.762698,3.87512309 283.659195,3.10215084 286.436435,2 L286.436435,26.488189 C286.436435,30.0708661 286.731324,30.2677165 292,30.6023622 L292,31.9212598 L277,32 Z" id="Path"></path>
                <path d="M311.3638,17.9603073 L308.228183,19.5352113 C307.363355,19.9848147 306.401289,20.2220002 305.423656,20.2266325 C303.126682,20.250538 300.921514,19.3386236 299.328857,17.7062185 C297.7362,16.0738134 296.897238,13.865626 297.010074,11.603073 C296.978896,9.07348092 297.973414,6.63635962 299.772674,4.83316844 C301.571933,3.02997726 304.026921,2.01005517 306.592209,2 C312.629732,2 315.99906,7.24327785 315.99906,13.5236876 C316.076499,21.1518886 311.362867,28.0326692 304.157723,30.809219 C302.366612,31.4380642 300.501247,31.8382427 298.607097,32 L298.237055,30.6555698 C304.916675,29.6300015 310.193948,24.5261954 311.3638,17.9603073 Z M306.027408,3.6709347 C302.385418,3.6709347 301.119486,7.07042254 301.119486,10.2970551 C301.119486,14.368758 303.41764,17.7298335 307.351768,17.7298335 C308.8631,17.7328132 310.33628,17.2620059 311.558559,16.3854033 C311.681585,15.3913801 311.740132,14.390625 311.733842,13.3892446 C311.714366,9.29833547 310.565289,3.6709347 306.027408,3.6709347 Z" id="Shape" fill-rule="nonzero"></path>
            </g>
        </g>
    </g>
</svg>