<?xml version="1.0" encoding="UTF-8"?>
<svg width="205px" height="172px" viewBox="0 0 205 172" version="1.1" xmlns="http://www.w3.org/2000/svg" xmlns:xlink="http://www.w3.org/1999/xlink">
    <!-- Generator: Sketch 55.1 (78136) - https://sketchapp.com -->
    <title>video-camera</title>
    <desc>Created with Sketch.</desc>
    <g id="Home" stroke="none" stroke-width="1" fill="none" fill-rule="evenodd">
        <g id="Desktop" transform="translate(-207.000000, -1279.000000)" fill="#7A0000">
            <g id="Content" transform="translate(0.000000, 960.000000)">
                <g id="Intro" transform="translate(207.000000, 297.000000)">
                    <g id="Group-2">
                        <g id="video-camera" transform="translate(0.000000, 22.000000)">
                            <path d="M203.74359,90.9960067 C201.482051,87.2103161 196.205128,85.7906822 191.933333,88.1567388 L163.287179,103.772712 L156,107.795008 L156,145.178702 L162.784615,148.964393 C163.035897,148.964393 163.035897,149.200998 163.287179,149.200998 L191.430769,164.580366 C192.687179,165.526789 194.446154,166 196.205128,166 C200.979487,166 204.748718,162.450915 204.748718,157.955408 L204.748718,126.25025 L205,95.0183028 C205,93.5986689 204.748718,92.1790349 203.74359,90.9960067 Z" id="Path"></path>
                            <path d="M40.0012612,77 C62.1123653,77 80,59.7826087 80,38.5 C80,17.2173913 62.1123653,0 40.0012612,0 C17.8901572,0 0.00252242926,17.2173913 0.00252242926,38.5 C-0.245916942,59.7826087 17.8901572,77 40.0012612,77 Z M40.0012612,22.7173913 C49.193518,22.7173913 56.3982597,29.8913043 56.3982597,38.5 C56.3982597,47.3478261 48.9450786,54.2826087 40.0012612,54.2826087 C31.0574438,54.2826087 23.6042627,47.1086957 23.6042627,38.5 C23.3558233,29.6521739 30.8090045,22.7173913 40.0012612,22.7173913 Z" id="Shape" fill-rule="nonzero"></path>
                            <path d="M140.157068,79.3631841 C133.759162,82.4353234 126.623037,84.3258706 118.994764,84.3258706 C109.643979,84.3258706 100.78534,81.7263682 93.4031414,77 L65.3507853,77 C57.9685864,81.7263682 49.1099476,84.3258706 39.7591623,84.3258706 C32.1308901,84.3258706 24.9947644,82.6716418 18.5968586,79.3631841 C12.9371728,82.4353234 9,88.579602 9,95.1965174 L9,152.858209 C9,163.492537 18.104712,172 28.9319372,172 L130.068063,172 C141.141361,172 150,163.256219 150,152.858209 L150,95.1965174 C149.753927,88.579602 145.816754,82.4353234 140.157068,79.3631841 Z" id="Path"></path>
                            <path d="M118,77 C140.111801,77 158,59.7826087 158,38.5 C158,17.2173913 140.111801,0 118,0 C95.8881988,0 78,17.2173913 78,38.5 C78,59.7826087 95.8881988,77 118,77 Z M118,22.7173913 C127.192547,22.7173913 134.397516,29.8913043 134.397516,38.5 C134.397516,47.3478261 126.944099,54.2826087 118,54.2826087 C109.055901,54.2826087 101.602484,47.1086957 101.602484,38.5 C101.602484,29.6521739 108.807453,22.7173913 118,22.7173913 Z" id="Shape" fill-rule="nonzero"></path>
                        </g>
                    </g>
                </g>
            </g>
        </g>
    </g>
</svg>